<svg width="14" height="14" viewBox="0 0 14 14" fill="none" xmlns="http://www.w3.org/2000/svg">
<path fill-rule="evenodd" clip-rule="evenodd" d="M2.66461 3.66671C2.44581 3.30896 2.33325 2.86861 2.33325 2.33337C2.33325 1.2781 3.12682 0.333374 4.33325 0.333374C5.54125 0.333374 6.51543 1.14246 6.99992 2.40926C7.48441 1.14246 8.45859 0.333374 9.66659 0.333374C10.873 0.333374 11.6665 1.2781 11.6665 2.33337C11.6665 2.86861 11.554 3.30896 11.3352 3.66671H12.3332C13.0696 3.66671 13.6665 4.26366 13.6665 5.00004V6.33337C13.6665 7.06975 13.0696 7.66671 12.3332 7.66671V12.3334C12.3332 13.0698 11.7363 13.6667 10.9999 13.6667H2.99992C2.26354 13.6667 1.66659 13.0698 1.66659 12.3334V7.66671C0.930206 7.66671 0.333252 7.06975 0.333252 6.33337V5.00004C0.333252 4.26366 0.930206 3.66671 1.66659 3.66671H2.66461ZM6.33325 5.00004H1.66659V6.33337H6.33325V5.00004ZM12.3332 6.33337H7.66659V5.00004H12.3332V6.33337ZM6.33325 12.3334V7.66671H2.99992V12.3334H6.33325ZM10.9999 12.3334H7.66659V7.66671H10.9999V12.3334ZM4.33325 1.66671C3.91968 1.66671 3.66659 1.96802 3.66659 2.33337C3.66659 3.16886 4.34459 3.56612 5.95287 3.6497C5.77412 2.40777 5.10804 1.66671 4.33325 1.66671ZM7.99992 3.6497C8.17866 2.40777 8.84475 1.66671 9.61953 1.66671C10.0331 1.66671 10.2862 1.96802 10.2862 2.33337C10.2862 3.16886 9.6082 3.56612 7.99992 3.6497Z" fill="#9564AA"/>
</svg>
